P3
8  8
255
  0   0   0   32   0   0   64   0   0   96   0   0  128   0   0  159   0   0  191   0   0  223   0   0
  0  32   0   32  32   0   64  32   0   96  32   0  128  32   0  159  32   0  191  32   0  223  32   0
  0  64   0   32  64   0   64  64   0   96  64   0  128  64   0  159  64   0  191  64   0  223  64   0
  0  96   0   32  96   0   64  96   0   96  96   0  128  96   0  159  96   0  191  96   0  223  96   0
  0 128   0   32 128   0   64 128   0   96 128   0  128 128   0  159 128   0  191 128   0  223 128   0
  0 159   0   32 159   0   64 159   0   96 159   0  128 159   0  159 159   0  191 159   0  223 159   0
  0 191   0   32 191   0   64 191   0   96 191   0  128 191   0  159 191   0  191 191   0  223 191   0
  0 223   0   32 223   0   64 223   0   96 223   0  128 223   0  159 223   0  191 223   0  223 223   0
